# xmcd
#
# Track frame offsets: 
#        150
#        21705
#        41575
#        59478
#        79109
#        91859
#        122191
#        139913
#        147980
#        161329
#        168758
#        182484
#        197044
#        212509
#        227931
#        237225
#        248776
#        264563
#        284515
#        297766
#        306880
#
# Disc length: 4342 seconds
#
# Revision: 0
# Processed by: cddbd v1.5.2PL0 Copyright (c) Steve Scherf et al.
# Submitted via: ExactAudioCopyFreeDBPlugin 1.0
#
DISCID=3510f415
DTITLE=Joe Budden - Mood Muzik 1
DYEAR=2004
DGENRE=Hip-Hop
TTITLE0=I Want You Back
TTITLE1=Freestyle (feat. Stack Bundles and A-Team)
TTITLE2=Cut 2Nite
TTITLE3=Oh My God (feat. Fabolous and Paul Cain)
TTITLE4=Through the Wire
TTITLE5=Find a Way (Whatever It Takes)
TTITLE6=Bitch Rappers and Metaphors
TTITLE7=Fight Muzik
TTITLE8=The Pump
TTITLE9=Where I'm From
TTITLE10=Def Jam Diss
TTITLE11=Only Girl
TTITLE12=So Lonely
TTITLE13=Last Real Nigga Alive
TTITLE14=The Truth
TTITLE15=Freestyle
TTITLE16=This Is For
TTITLE17=Rest in Peace (In the Air)
TTITLE18=Walk with Me
TTITLE19=Calm Down
TTITLE20=Heaven or Hell
EXTD=
EXTT0=
EXTT1=
EXTT2=
EXTT3=
EXTT4=
EXTT5=
EXTT6=
EXTT7=
EXTT8=
EXTT9=
EXTT10=
EXTT11=
EXTT12=
EXTT13=
EXTT14=
EXTT15=
EXTT16=
EXTT17=
EXTT18=
EXTT19=
EXTT20=
PLAYORDER=
